v 1.000000 -1.000000 -1.000000
v 1.000000 -1.000000 1.000000
v -1.000000 -1.000000 1.000000
v -1.000000 -1.000000 -1.000000
v 1.000000 1.000000 -0.999999
v 0.999999 1.000000 1.000001
v -1.000000 1.000000 1.000000
v -1.000000 1.000000 -1.000000

vn 0.000000 -1.000000 0.000000
vn 0.000000 1.000000 0.000000
vn 1.000000 -0.000000 0.000000
vn 0.000000 -0.000000 1.000000
vn -1.000000 -0.000000 -0.000000
vn 0.000000 0.000000 -1.000000
vn 1.000000 0.000000 0.000001

vt 1 0
vt 1 1
vt 0 1
vt 0 0

# Bottom
f 1/1/1 2/2/1 4/4/1
f 2/2/1 3/3/1 4/4/1

# Top
f 5/1/2 8/4/2 6/2/2
f 8/4/2 7/3/2 6/2/2

# Left
f 3/4/5 7/3/5 4/1/5
f 7/3/5 8/2/5 4/1/5

# Right
f 1/4/3 5/3/3 2/1/3
f 5/3/7 6/2/7 2/1/7

# Front
f 5/2/6 1/1/6 8/3/6
f 1/1/6 4/4/6 8/3/6

# Back
f 2/4/4 6/3/4 3/1/4
f 6/3/4 7/2/4 3/1/4
