# Blender v2.69 (sub 0) OBJ File: ''
# www.blender.org
v 1.000000 -1.000000 -1.000000
v 1.000000 -1.000000 1.000000
v -1.000000 -1.000000 1.000000
v -1.000000 -1.000000 -1.000000

v 1.000000 1.000000 -0.999999
v 0.999999 1.000000 1.000001
v -1.000000 1.000000 1.000000
v -1.000000 1.000000 -1.000000

vn 0.000000 -1.000000 0.000000
vn 0.000000 1.000000 0.000000
vn 1.000000 -0.000000 0.000000
vn 0.000000 -0.000000 1.000000
vn -1.000000 -0.000000 -0.000000
vn 0.000000 0.000000 -1.000000
vn 1.000000 0.000000 0.000001

vt 20 0
vt 20 20
vt 0 20
vt 0 0

s off
f 1/1/1 2/2/1 4/4/1
f 5/1/2 8/4/2 6/2/2
f 1/1/3 5/1/3 2/1/3
f 2/1/4 6/1/4 3/1/4
f 3/1/5 7/1/5 4/1/5
f 5/1/6 1/1/6 8/1/6
f 2/2/1 3/3/1 4/4/1
f 8/4/2 7/3/2 6/2/2
f 5/1/7 6/1/7 2/1/7
f 6/1/4 7/1/4 3/1/4
f 7/1/5 8/1/5 4/1/5
f 1/1/6 4/1/6 8/1/6
